<svg width="103" height="86" viewBox="0 0 103 86" fill="none" xmlns="http://www.w3.org/2000/svg">
<path d="M13.8585 26.2598L0.726562 35.5806C0.726562 35.5806 10.7988 51.3209 20.6932 55.3042L30.7641 46.6889C30.7655 46.6889 19.2085 38.6431 13.8585 26.2598Z" fill="#E4E7EC"/>
<path d="M64.5073 74.3486L65.5004 81.1097C65.5004 81.1097 75.1643 81.5292 79.2573 77.9625L77.6782 71.4042C77.6782 71.4042 71.3587 74.7847 64.5073 74.3486Z" fill="#F7F9FC"/>
<path d="M91.5518 27.6958L102.085 19.6319C102.085 19.6319 92.4782 3.1875 82.5754 0.136108L73.5254 9.29444C73.5254 9.29444 85.3671 16.1431 91.5518 27.6958Z" fill="#F7F9FC"/>
<g opacity="0.6">
<path d="M27.2275 54.2361C26.1567 56.4194 25.29 58.5486 24.64 60.5722L19.9095 69.3861L14.8608 54.2361H27.2275Z" fill="#98A2B3"/>
<path d="M19.9097 69.6986C19.9014 69.6986 19.8916 69.6986 19.8833 69.6972C19.7597 69.6861 19.6527 69.6027 19.6139 69.4847L14.5639 54.3347C14.5319 54.2389 14.5486 54.1347 14.6069 54.0527C14.6652 53.9708 14.7597 53.9236 14.8611 53.9236H27.2291C27.3375 53.9236 27.4375 53.9791 27.4944 54.0708C27.5514 54.1625 27.5569 54.2764 27.5097 54.3736C26.4541 56.525 25.5902 58.6416 24.9389 60.668C24.9333 60.6861 24.925 60.7041 24.9166 60.7208L20.1861 69.5347C20.1305 69.6361 20.0236 69.6986 19.9097 69.6986ZM15.2944 54.5486L19.9777 68.6L24.3527 60.45C24.9652 58.5458 25.7652 56.5625 26.7305 54.5486H15.2944Z" fill="#F9FAFB"/>
</g>
<path d="M23.2111 69.3875H19.9097V69.3862L24.6402 60.5723C23.5888 63.8528 23.0999 66.8598 23.2111 69.3875Z" fill="#D0D5DD"/>
<path d="M23.2111 69.7H19.9097C19.7374 69.7 19.5972 69.5598 19.5972 69.3875C19.5972 69.3361 19.6097 69.2834 19.6347 69.2375L24.3652 60.4236C24.4416 60.282 24.6138 60.2209 24.7624 60.2834C24.9111 60.3459 24.9874 60.5125 24.9374 60.6667C23.8874 63.9389 23.4124 66.8681 23.5236 69.3736C23.5277 69.4584 23.4958 69.5417 23.4374 69.6028C23.3777 69.6653 23.2972 69.7 23.2111 69.7ZM20.4305 69.075H22.8874C22.8444 67.3042 23.0763 65.3417 23.5777 63.2111L20.4305 69.075Z" fill="#F9FAFB"/>
<path d="M26.7975 69.0098L26.7183 69.282C26.3141 70.6598 26.01 71.9987 25.8128 73.2625L25.7905 73.407L25.8711 73.5292C26.3239 74.2195 26.8975 74.7639 27.5766 75.1445L28.0905 75.4334L28.1405 74.8473C28.2794 73.2209 28.6461 71.4209 29.228 69.5L29.3766 69.0112H26.7975V69.0098Z" fill="#D0D5DD"/>
<path d="M28.0876 75.7459C28.0348 75.7459 27.982 75.732 27.9348 75.7056L27.4209 75.4167C26.6987 75.0112 26.0889 74.4334 25.6084 73.7L25.5278 73.5778C25.4848 73.5125 25.4681 73.4348 25.4806 73.3584L25.5028 73.2139C25.7028 71.9375 26.0098 70.5848 26.4181 69.1945L26.4973 68.9223C26.5362 68.7889 26.6584 68.6973 26.7973 68.6973H29.3737C29.4723 68.6973 29.5653 68.7445 29.6251 68.8237C29.6834 68.9028 29.7014 69.0056 29.6737 69.1L29.5251 69.5889C28.9487 71.4903 28.5876 73.2681 28.4501 74.8723L28.4001 75.4598C28.3903 75.5653 28.3292 75.6598 28.2348 75.7098C28.1876 75.7334 28.1376 75.7459 28.0876 75.7459ZM26.1167 73.3348L26.1306 73.3556C26.5556 74.0042 27.0931 74.5139 27.7278 74.8709L27.8181 74.9223L27.8264 74.8195C27.9681 73.1709 28.3376 71.35 28.9264 69.4084L28.9528 69.3223H27.032L27.0181 69.3695C26.6181 70.7348 26.3153 72.0598 26.1209 73.3098L26.1167 73.3348Z" fill="#F9FAFB"/>
<path d="M29.0987 54.2361H55.2196C52.0043 59.7403 47.8668 64.8514 43.4112 68.7916C43.1821 68.9944 42.9529 69.1944 42.7237 69.3889H28.8626H27.0821H25.0112C24.7265 65.468 26.1529 60.0778 29.0987 54.2361Z" fill="#E4E7EC"/>
<path d="M42.7235 69.7014H25.011C24.8471 69.7014 24.711 69.575 24.6999 69.4111C24.4069 65.3847 25.8707 59.9445 28.8207 54.0945C28.8735 53.9889 28.9818 53.9222 29.0999 53.9222H55.2207C55.3332 53.9222 55.436 53.982 55.4916 54.0792C55.5471 54.1764 55.5471 54.2959 55.4902 54.3931C52.2707 59.9056 48.0541 65.1028 43.6194 69.025C43.3888 69.2292 43.1569 69.4292 42.9263 69.6264C42.8694 69.675 42.7985 69.7014 42.7235 69.7014ZM25.3055 69.0764H42.6096C42.8082 68.907 43.0068 68.7334 43.2055 68.5584C47.4666 64.7889 51.5235 59.8306 54.6735 54.5486H29.2916C26.5193 60.0931 25.111 65.2292 25.3055 69.0764Z" fill="#F9FAFB"/>
<path d="M52.8083 69.0097L52.6944 69.1528C50.5569 71.8584 48.2653 74.3 45.8806 76.4084C41.1653 80.5806 36.5347 82.9736 33.175 82.9736C31.2806 82.9736 29.8903 82.2167 29.0444 80.725C28.4597 79.6931 28.1361 78.3625 28.0819 76.7695L28.0722 76.5083L27.825 76.4236C27.2125 76.2139 26.6542 75.9125 26.1653 75.5278L25.5819 75.0681L25.5514 75.8097C25.4458 78.3625 25.8556 80.4722 26.7681 82.0847C28.0167 84.2861 30.1375 85.4486 32.9 85.4486C36.9931 85.4486 42.1764 82.857 47.4958 78.1486C50.075 75.8653 52.5472 73.2195 54.8403 70.2889C54.9694 70.125 55.0958 69.9611 55.2222 69.7959L55.8306 69.007H52.8083V69.0097Z" fill="#98A2B3"/>
<path d="M32.9014 85.7625C30.0209 85.7625 27.8056 84.5445 26.4986 82.2403C25.5556 80.5764 25.1334 78.4098 25.2417 75.7987L25.2723 75.057C25.2778 74.9403 25.3473 74.8348 25.4542 74.7862C25.5611 74.7375 25.6861 74.7514 25.7778 74.825L26.3611 75.2848C26.8209 75.6473 27.3486 75.932 27.9278 76.1306L28.175 76.2153C28.2973 76.257 28.382 76.3709 28.3861 76.5L28.3959 76.7612C28.4486 78.3042 28.7598 79.5862 29.3181 80.5737C30.1042 81.9612 31.4014 82.6639 33.1764 82.6639C36.4611 82.6639 41.0167 80.3 45.675 76.1764C48.0459 74.0806 50.325 71.6528 52.4514 68.9612L52.5653 68.8167C52.625 68.7417 52.7153 68.6973 52.8111 68.6973H55.8361C55.9556 68.6973 56.0639 68.7653 56.1167 68.8723C56.1695 68.9792 56.157 69.107 56.0834 69.2014L55.4598 70.0098C55.3375 70.1695 55.2153 70.3278 55.0903 70.4862C52.7848 73.432 50.3 76.0903 47.707 78.3862C42.3278 83.1431 37.0709 85.7625 32.9014 85.7625ZM25.8709 75.6945L25.8653 75.825C25.7625 78.3181 26.1584 80.3723 27.0417 81.932C28.232 84.0292 30.2584 85.1375 32.9014 85.1375C36.9181 85.1375 42.0278 82.5737 47.2903 77.9167C49.8542 75.6459 52.3125 73.0153 54.5959 70.0987C54.7195 69.9417 54.8403 69.7848 54.9611 69.6278L55.1973 69.3209H52.9598L52.9403 69.3459C50.7917 72.0667 48.4861 74.5223 46.0875 76.6431C41.3167 80.8653 36.6098 83.2862 33.175 83.2862C31.1598 83.2862 29.6792 82.4764 28.7736 80.8792C28.1639 79.8042 27.8264 78.425 27.7695 76.7806L27.7681 76.7348L27.725 76.7195C27.0778 76.4987 26.4889 76.1806 25.9736 75.7737L25.8709 75.6945Z" fill="#F9FAFB"/>
<path d="M71.6971 69.2528L71.7749 69.2806V69.282L71.7763 69.2806L71.8554 69.3098L71.7985 69.4167L71.7207 69.3889L71.6401 69.3584L71.6971 69.2528Z" fill="#101928"/>
<path d="M71.7986 69.7291C71.7638 69.7291 71.7277 69.7236 71.693 69.7111L71.5333 69.6541C71.4472 69.6236 71.3805 69.5569 71.3472 69.4722C71.3138 69.3875 71.3208 69.293 71.3638 69.2125L71.4208 69.1055C71.4944 68.9694 71.6569 68.9069 71.8013 68.9583L71.8791 68.9861H71.8805L71.9611 69.0153C72.0472 69.0458 72.1138 69.1125 72.1472 69.1972C72.1805 69.2819 72.1736 69.3764 72.1305 69.4569L72.0736 69.5639C72.018 69.668 71.9111 69.7291 71.7986 69.7291Z" fill="#F9FAFB"/>
<path d="M88.4081 13.9166L93.4234 28.9611L71.7762 69.2805L66.7637 54.2361L80.2748 29.0694L88.4081 13.9166Z" fill="#98A2B3"/>
<path d="M71.7763 69.5931C71.768 69.5931 71.7583 69.5931 71.75 69.5917C71.6263 69.5806 71.5194 69.4972 71.4805 69.3792L66.4694 54.3333C66.4416 54.2514 66.45 54.1625 66.4902 54.0861L88.1347 13.7667C88.193 13.6569 88.3152 13.5931 88.4361 13.6028C88.5597 13.6139 88.6666 13.6972 88.7055 13.8153L93.7194 28.8597C93.7472 28.9417 93.7388 29.0306 93.6986 29.1069L72.0513 69.4264C71.9958 69.5306 71.8902 69.5931 71.7763 69.5931ZM67.1041 54.2653L71.8444 68.4944L93.0847 28.9319L88.3416 14.7028L67.1041 54.2653Z" fill="#F9FAFB"/>
<path d="M71.6957 69.2514L71.7748 69.2791L66.7637 54.2361H57.1373C53.9137 59.9111 49.7165 65.2236 45.1665 69.3875H58.629H71.7207L71.6387 69.3597L71.6957 69.2514Z" fill="#E4E7EC"/>
<path d="M71.7209 69.7H45.1667C45.0376 69.7 44.9223 69.6209 44.8751 69.5C44.8278 69.3792 44.8598 69.2431 44.9556 69.157C49.4487 65.0459 53.6792 59.6917 56.8667 54.0806C56.9223 53.9834 57.0265 53.9222 57.139 53.9222H66.7653C66.9001 53.9222 67.0195 54.0084 67.0612 54.1361L72.0723 69.1806C72.1056 69.2806 72.0862 69.3903 72.0209 69.4722C71.9834 69.607 71.8626 69.7 71.7209 69.7ZM45.9612 69.075H71.3778L66.539 54.5486H57.3195C54.2501 59.9125 50.2417 65.0375 45.9612 69.075Z" fill="#F9FAFB"/>
<path d="M55.0013 53.8569L54.8916 54.0444C51.7069 59.4958 47.5416 64.6319 43.1596 68.5083C42.9319 68.7097 42.7041 68.9069 42.4777 69.1C38.0124 72.8958 33.6305 75.0736 30.4569 75.0736C29.486 75.0736 28.6416 74.875 27.9458 74.4847C27.3735 74.1639 26.8888 73.7028 26.5027 73.1139C26.4416 73.0208 26.3833 72.925 26.3263 72.825C25.8041 71.9042 25.4888 70.7389 25.3888 69.3625C25.1055 65.4583 26.543 60.1472 29.4374 54.4083L29.7152 53.8583H26.993L26.8888 54.0708C24.0902 59.7778 22.6499 65.2236 22.8346 69.4069C22.918 71.2986 23.3277 72.9069 24.0527 74.1861C24.4902 74.9583 25.0444 75.6111 25.6985 76.1278C26.2541 76.5653 26.8874 76.9083 27.5819 77.1458C28.3708 77.4153 29.2458 77.5514 30.1846 77.5514C34.2777 77.5514 39.461 74.9597 44.7791 70.2514C44.9958 70.0597 45.2096 69.8667 45.4249 69.6708C49.968 65.5125 54.2458 60.0972 57.4708 54.4264L57.793 53.8597H55.0013V53.8569Z" fill="#D0D5DD"/>
<path d="M30.1833 77.8611C29.2111 77.8611 28.3014 77.7194 27.4805 77.4389C26.7528 77.1903 26.0889 76.8305 25.5041 76.3708C24.818 75.8292 24.2375 75.1458 23.7791 74.3389C23.0305 73.0167 22.6069 71.3611 22.5208 69.4194C22.3347 65.1847 23.7847 59.6847 26.6069 53.9319L26.7111 53.7194C26.7639 53.6125 26.8722 53.5444 26.9916 53.5444H29.7139C29.8222 53.5444 29.9236 53.6014 29.9805 53.693C30.0375 53.7861 30.0416 53.9014 29.993 53.9972L29.7153 54.5472C26.8458 60.2375 25.4194 65.4903 25.7 69.3389C25.7958 70.668 26.0986 71.7889 26.5972 72.6708C26.6486 72.7611 26.7041 72.8528 26.7639 72.943C27.1222 73.4875 27.5708 73.9153 28.0986 74.2111C28.7472 74.575 29.5403 74.7611 30.4569 74.7611C33.5583 74.7611 37.8666 72.6111 42.2764 68.8625C42.5014 68.6708 42.7278 68.475 42.9541 68.275C47.3111 64.4208 51.4555 59.3111 54.6236 53.8889L54.7333 53.7014C54.7889 53.6055 54.8916 53.5458 55.0028 53.5458H57.7903C57.9014 53.5458 58.0041 53.6055 58.0597 53.7014C58.1153 53.7972 58.1166 53.9167 58.0611 54.0125L57.7389 54.5791C54.5 60.2778 50.2014 65.718 45.6333 69.8986C45.418 70.0958 45.2014 70.2903 44.9847 70.4833C39.6097 75.2403 34.3528 77.8611 30.1833 77.8611ZM27.1861 54.1694L27.168 54.2069C24.3916 59.8666 22.9639 65.2597 23.1458 69.3917C23.2264 71.2333 23.6236 72.7944 24.3236 74.0305C24.7416 74.7667 25.268 75.3903 25.8916 75.8805C26.4194 76.2972 27.0222 76.6222 27.6833 76.8472C28.4389 77.1055 29.2805 77.2361 30.1847 77.2361C34.2014 77.2361 39.3111 74.6722 44.5722 70.0153C44.7861 69.825 45 69.6333 45.2139 69.4375C49.7333 65.3 53.9903 59.9125 57.1986 54.268L57.2555 54.168H55.1833L55.1639 54.2014C51.9639 59.6805 47.775 64.843 43.3694 68.7417C43.1403 68.9444 42.9111 69.143 42.6819 69.3375C38.1611 73.1805 33.7055 75.3847 30.4583 75.3847C29.4333 75.3847 28.5361 75.1722 27.7944 74.7555C27.1791 74.4097 26.6569 73.9139 26.2444 73.2847C26.1778 73.1833 26.1153 73.0805 26.0569 72.9778C25.5111 72.0153 25.1833 70.8069 25.0791 69.3833C24.7916 65.4236 26.2403 60.0555 29.1597 54.2653L29.2083 54.168H27.1861V54.1694Z" fill="#F9FAFB"/>
<path d="M88.4086 13.9166L80.2752 29.0694L66.7641 54.2361H57.1391H55.2197H29.0988H27.228H14.8613L36.5072 13.9166H88.4086Z" fill="#D0D5DD"/>
<path d="M66.7639 54.5486H14.8611C14.7514 54.5486 14.65 54.4903 14.593 54.3958C14.5361 54.3014 14.5333 54.1847 14.5861 54.0875L36.2319 13.7681C36.2861 13.6667 36.3916 13.6028 36.5069 13.6028H88.4083C88.518 13.6028 88.6194 13.6611 88.6764 13.7542C88.7333 13.8472 88.7361 13.9653 88.6833 14.0625L67.0389 54.382C66.9847 54.4847 66.8791 54.5486 66.7639 54.5486ZM15.3833 53.9236H66.5778L87.8861 14.2292H36.6944L15.3833 53.9236Z" fill="#F9FAFB"/>
<path d="M71.1663 23.6528C71.5649 23.6528 71.8343 23.9542 71.7815 24.332C71.726 24.7112 71.3621 25.0237 70.9663 25.0278L45.0954 25.3667C44.6968 25.3667 44.4274 25.0639 44.4815 24.6889C44.5371 24.3084 44.901 23.9973 45.2954 23.9917L71.1663 23.6528Z" fill="#F7F9FC"/>
<path d="M67.7094 29.3682C68.1108 29.3682 68.3788 29.6709 68.3247 30.0459C68.2691 30.4265 67.9052 30.7376 67.5108 30.7432L41.6399 31.0821C41.2413 31.0821 40.9719 30.7807 41.0247 30.4029C41.0802 30.0237 41.4441 29.7112 41.8399 29.7071L67.7094 29.3682Z" fill="#F7F9FC"/>
<path d="M64.2541 35.082C64.6514 35.082 64.9222 35.3834 64.8666 35.7612C64.8125 36.1404 64.4472 36.4529 64.0541 36.457L38.1833 36.7959C37.7847 36.7959 37.5153 36.4931 37.5694 36.1181C37.6236 35.7376 37.9889 35.4265 38.3833 35.4209L64.2541 35.082Z" fill="#F7F9FC"/>
<path d="M60.797 40.7987C61.1984 40.7987 61.4651 41.1015 61.4123 41.4765C61.3567 41.857 60.9928 42.1682 60.597 42.1737L34.7262 42.5126C34.3289 42.5126 34.0581 42.2112 34.1137 41.8334C34.1692 41.4543 34.5331 41.1418 34.9262 41.1376L60.797 40.7987Z" fill="#F7F9FC"/>
<path d="M31.1241 21.5013C31.7727 21.5736 31.9949 22.1111 31.6241 22.7027C31.2546 23.293 30.431 23.7152 29.7824 23.6444C29.138 23.5735 28.9116 23.0347 29.281 22.4444C29.6519 21.8513 30.4796 21.4291 31.1241 21.5013Z" fill="#98A2B3"/>
<path d="M29.9294 23.9361C29.8697 23.9361 29.8099 23.9333 29.7516 23.9264C29.3544 23.8819 29.0558 23.693 28.9099 23.3916C28.7558 23.0736 28.803 22.6736 29.0405 22.293C29.4697 21.6069 30.3974 21.1347 31.1544 21.218C31.553 21.2625 31.8516 21.4514 31.9974 21.7514C32.1516 22.0694 32.103 22.4708 31.8641 22.8527C31.4697 23.4861 30.6488 23.9361 29.9294 23.9361ZM30.9752 21.7777C30.4544 21.7777 29.8127 22.1319 29.5224 22.5958C29.3905 22.8055 29.3544 23.0069 29.4211 23.1444C29.478 23.2625 29.6183 23.3402 29.8141 23.3625C30.3516 23.4222 31.0711 23.0514 31.3822 22.5527C31.5155 22.3402 31.553 22.1389 31.4849 22.0014C31.428 21.8833 31.2877 21.8069 31.0919 21.7847C31.0544 21.7791 31.0155 21.7777 30.9752 21.7777Z" fill="#F9FAFB"/>
<path d="M38.8709 9.12787C39.5875 9.20704 39.8223 9.84731 39.3514 10.507L32.3056 20.4779C32.1361 20.7182 31.7945 20.882 31.5292 20.8529L31.4959 20.8473C31.2514 20.8043 31.1723 20.5932 31.2945 20.3668L36.8236 10.2279C37.1736 9.58482 38.0473 9.08898 38.7723 9.12231C38.807 9.12231 38.8389 9.1237 38.8709 9.12787Z" fill="#98A2B3"/>
<path d="M31.5946 21.1389C31.5627 21.1389 31.5307 21.1375 31.4988 21.1334C31.4932 21.1334 31.4877 21.132 31.4821 21.1306L31.4488 21.125C31.2446 21.0889 31.089 20.9778 31.0085 20.8112C30.9252 20.6375 30.9391 20.4264 31.046 20.2292L36.5766 10.0903C36.9807 9.35004 37.9543 8.79865 38.7877 8.83615C38.8321 8.83893 38.8668 8.84032 38.9029 8.84449C39.3252 8.89171 39.6502 9.1056 39.7974 9.43477C39.9613 9.80004 39.8835 10.2514 39.5835 10.6709L32.5391 20.6403C32.3279 20.9403 31.9432 21.1389 31.5946 21.1389ZM31.5682 20.5695C31.7335 20.5834 31.9668 20.4653 32.0738 20.3125L39.1196 10.3417C39.2974 10.0931 39.3557 9.84171 39.2779 9.66671C39.214 9.52505 39.0585 9.43338 38.8404 9.40977C38.8154 9.40699 38.7918 9.4056 38.7668 9.40421C38.1432 9.37643 37.3724 9.81532 37.0752 10.3625L31.546 20.5014C31.5307 20.5292 31.5266 20.5487 31.5238 20.5598C31.5293 20.5612 31.5363 20.5639 31.5474 20.5653L31.5682 20.5695Z" fill="#F9FAFB"/>
<path d="M40.6028 6.3458C46.6653 7.01525 48.7653 12.0541 45.2972 17.6C41.8305 23.143 34.1055 27.0958 28.043 26.4264C21.9833 25.7569 19.8833 20.718 23.35 15.175C26.818 9.62775 34.543 5.67497 40.6028 6.3458Z" fill="#98A2B3"/>
<path d="M29.4057 26.7833C28.9335 26.7833 28.4682 26.7583 28.0127 26.7083C25.1252 26.3889 22.9877 25.0819 21.9932 23.0292C20.9141 20.8014 21.321 17.8833 23.1099 15.0236C26.6238 9.40277 34.4877 5.38471 40.6349 6.06388C43.5224 6.38332 45.6613 7.69027 46.6557 9.74443C47.7349 11.9722 47.3279 14.8917 45.5391 17.7514C42.2849 22.9528 35.3043 26.7833 29.4057 26.7833ZM39.2266 6.55554C33.5154 6.55554 26.7502 10.2736 23.5918 15.3236C21.9099 18.0139 21.5141 20.7305 22.5057 22.7792C23.4113 24.65 25.3904 25.8444 28.0752 26.1417C34.0307 26.8 41.6474 22.9 45.0571 17.4472C46.7404 14.7569 47.1363 12.0389 46.1446 9.99026C45.2377 8.11804 43.2599 6.92499 40.5738 6.62777C40.1321 6.57915 39.6821 6.55554 39.2266 6.55554Z" fill="#F9FAFB"/>
<path d="M31.6237 22.7028C31.9931 22.1111 31.7723 21.5722 31.1237 21.5014C30.4792 21.4306 29.6514 21.8528 29.282 22.4445C28.9126 23.0347 29.1389 23.5736 29.7834 23.6445C30.432 23.7153 31.2556 23.2931 31.6237 22.7028Z" fill="#F9FAFB"/>
<path d="M29.9294 23.9361C29.8697 23.9361 29.8099 23.9333 29.7516 23.9264C29.3544 23.8819 29.0558 23.693 28.9099 23.3916C28.7558 23.0736 28.803 22.6736 29.0405 22.293C29.4697 21.6069 30.3961 21.1347 31.1544 21.218C31.553 21.2625 31.8516 21.4514 31.9974 21.7514C32.1516 22.0694 32.103 22.4708 31.8641 22.8527C31.4697 23.4861 30.6488 23.9361 29.9294 23.9361ZM30.9752 21.7777C30.4544 21.7777 29.8127 22.1319 29.5224 22.5958C29.3905 22.8055 29.3544 23.0069 29.4211 23.1444C29.478 23.2625 29.6183 23.3402 29.8141 23.3625C30.353 23.4222 31.0711 23.0514 31.3822 22.5527C31.5155 22.3402 31.553 22.1389 31.4849 22.0014C31.428 21.8833 31.2877 21.8069 31.0919 21.7847C31.0544 21.7791 31.0155 21.7777 30.9752 21.7777Z" fill="#F9FAFB"/>
<path d="M39.3516 10.5056C39.8225 9.84729 39.5877 9.20701 38.8711 9.12645C38.8391 9.12228 38.8072 9.1209 38.7738 9.11951C38.0488 9.08617 37.1752 9.58201 36.8252 10.2251L31.2961 20.3639C31.1725 20.5903 31.253 20.8014 31.4975 20.8445L31.5308 20.8501C31.7961 20.8792 32.1377 20.7153 32.3072 20.4751L39.3516 10.5056Z" fill="#F9FAFB"/>
<path d="M31.5946 21.1389C31.5627 21.1389 31.5307 21.1375 31.4988 21.1334C31.4932 21.1334 31.4877 21.132 31.4821 21.1306L31.4488 21.125C31.2446 21.0889 31.089 20.9778 31.0085 20.8112C30.9252 20.6375 30.9391 20.4264 31.046 20.2292L36.5766 10.0903C36.9807 9.35004 37.9543 8.79865 38.7877 8.83615C38.8307 8.83893 38.8668 8.84032 38.9029 8.84449C39.3252 8.89171 39.6502 9.1056 39.7974 9.43477C39.9613 9.80004 39.8835 10.2514 39.5835 10.6709L32.5391 20.6403C32.3279 20.9403 31.9432 21.1389 31.5946 21.1389ZM31.5682 20.5695C31.7307 20.5834 31.9668 20.4653 32.0738 20.3125L39.1196 10.3417V10.3403C39.296 10.0931 39.3557 9.84032 39.2766 9.66671C39.2127 9.52505 39.0571 9.43338 38.839 9.40977C38.814 9.40699 38.7904 9.4056 38.7654 9.40421C38.1404 9.37504 37.3724 9.81532 37.0738 10.3625L31.5446 20.5014C31.5293 20.5292 31.5252 20.5487 31.5224 20.5598C31.5279 20.5612 31.5349 20.5639 31.546 20.5653L31.5682 20.5695Z" fill="#F9FAFB"/>
</svg>
