<svg width="24" height="24" viewBox="0 0 24 24" fill="none" xmlns="http://www.w3.org/2000/svg">
<path d="M16.6875 16.375H9.12266C8.82992 16.375 8.54649 16.2722 8.32177 16.0846C8.09705 15.897 7.94529 15.6365 7.89297 15.3484L5.80703 3.875H3.875" stroke="#667185" stroke-width="1.5" stroke-linecap="round" stroke-linejoin="round"/>
<path d="M9.1875 19.5C10.0504 19.5 10.75 18.8004 10.75 17.9375C10.75 17.0746 10.0504 16.375 9.1875 16.375C8.32456 16.375 7.625 17.0746 7.625 17.9375C7.625 18.8004 8.32456 19.5 9.1875 19.5Z" stroke="#667185" stroke-width="1.5" stroke-linecap="round" stroke-linejoin="round"/>
<path d="M16.6875 19.5C17.5504 19.5 18.25 18.8004 18.25 17.9375C18.25 17.0746 17.5504 16.375 16.6875 16.375C15.8246 16.375 15.125 17.0746 15.125 17.9375C15.125 18.8004 15.8246 19.5 16.6875 19.5Z" stroke="#667185" stroke-width="1.5" stroke-linecap="round" stroke-linejoin="round"/>
<path d="M7.51172 13.25H17.3203C17.613 13.25 17.8965 13.1472 18.1212 12.9596C18.3459 12.772 18.4977 12.5115 18.55 12.2234L19.5 7H6.375" stroke="#667185" stroke-width="1.5" stroke-linecap="round" stroke-linejoin="round"/>
</svg>
