<svg width="16" height="17" viewBox="0 0 16 17" fill="none" xmlns="http://www.w3.org/2000/svg">
<path d="M7.99998 1.8335C4.32665 1.8335 1.33331 4.82683 1.33331 8.50016C1.33331 12.1735 4.32665 15.1668 7.99998 15.1668C11.6733 15.1668 14.6666 12.1735 14.6666 8.50016C14.6666 4.82683 11.6733 1.8335 7.99998 1.8335ZM11.1866 6.96683L7.40665 10.7468C7.31331 10.8402 7.18665 10.8935 7.05331 10.8935C6.91998 10.8935 6.79331 10.8402 6.69998 10.7468L4.81331 8.86016C4.61998 8.66683 4.61998 8.34683 4.81331 8.1535C5.00665 7.96016 5.32665 7.96016 5.51998 8.1535L7.05331 9.68683L10.48 6.26016C10.6733 6.06683 10.9933 6.06683 11.1866 6.26016C11.38 6.4535 11.38 6.76683 11.1866 6.96683Z" fill="#EB5017"/>
</svg>
