<svg width="28" height="28" viewBox="0 0 28 28" fill="none" xmlns="http://www.w3.org/2000/svg">
<path d="M14 23C18.9706 23 23 18.9706 23 14C23 9.02944 18.9706 5 14 5C9.02944 5 5 9.02944 5 14C5 18.9706 9.02944 23 14 23Z" stroke="#667185" stroke-width="1.5" stroke-linecap="round" stroke-linejoin="round"/>
<path d="M14 17C16.0711 17 17.75 15.3211 17.75 13.25C17.75 11.1789 16.0711 9.5 14 9.5C11.9289 9.5 10.25 11.1789 10.25 13.25C10.25 15.3211 11.9289 17 14 17Z" stroke="#667185" stroke-width="1.5" stroke-linecap="round" stroke-linejoin="round"/>
<path d="M7.9812 20.6909C8.54549 19.5795 9.40654 18.6459 10.4689 17.9939C11.5313 17.3418 12.7534 16.9966 14 16.9966C15.2465 16.9966 16.4686 17.3418 17.531 17.9939C18.5934 18.6459 19.4544 19.5795 20.0187 20.6909" stroke="#667185" stroke-width="1.5" stroke-linecap="round" stroke-linejoin="round"/>
</svg>
