<svg width="64" height="64" viewBox="0 0 64 64" fill="none" xmlns="http://www.w3.org/2000/svg">
<rect width="64" height="64" rx="4.77612" fill="#F56630"/>
<path d="M9.33203 11.4706C9.33203 10.2895 10.2895 9.33203 11.4706 9.33203C15.1368 9.33203 18.9628 12.4531 19.5971 16.0588L20.9969 21.6579L40.1303 22.1634C42.4722 22.1633 41.8435 22.296 45.8846 22.296C49.9257 22.296 50.8856 26.67 46.193 27.257C44.5094 27.4676 42.6512 27.257 40.1856 27.257L21.9703 27.7017L22.455 29.59C23.7964 35.1891 24.3214 35.6557 25.2546 37.5221C28.0541 41.2549 27.1209 39.8551 28.0541 40.7883C28.8342 41.5684 29.505 41.7066 30.3288 42.188C31.6702 42.6546 30.6876 42.4167 31.7869 42.6546C33.4872 42.7796 35.4575 43.1212 39.0543 43.1212H40.1856C41.8231 43.1212 43.3934 42.6546 43.3934 42.6546L44.7932 42.188C45.1529 42.0276 46.6596 41.2548 47.826 40.7883C49.6924 40.3217 49.9257 43.6679 49.9257 44.9876C49.9257 45.9208 47.9404 47.0836 47.1262 47.3206C46.193 47.7872 44.3266 47.7237 43.9661 47.7499C42.9193 47.8261 41.6488 47.8261 40.1077 47.826H39.0543C35.5893 47.8261 32.8387 47.8261 30.6195 47.6175C28.3416 47.4034 26.4256 46.9562 24.6877 45.9404C23.4879 45.2393 22.4054 44.3607 21.4801 43.3343C20.133 41.84 19.3399 40.0718 18.7279 37.9228C18.1345 35.839 17.6651 33.2157 17.0774 29.9308L16.1376 24.6786L16.1363 24.6712L14.6695 16.3337C14.3893 14.741 13.0284 13.6091 11.4706 13.6091C10.2895 13.6091 9.33203 12.6517 9.33203 11.4706Z" fill="#FFECE5"/>
<path d="M25.9058 54.2417C27.3822 54.2417 28.579 53.0449 28.579 51.5685C28.579 50.0922 27.3822 48.8953 25.9058 48.8953C24.4295 48.8953 23.2326 50.0922 23.2326 51.5685C23.2326 53.0449 24.4295 54.2417 25.9058 54.2417Z" fill="#FFECE5"/>
<path d="M47.826 51.5685C47.826 53.0449 46.6292 54.2417 45.1529 54.2417C43.6765 54.2417 42.4797 53.0449 42.4797 51.5685C42.4797 50.0922 43.6765 48.8953 45.1529 48.8953C46.6292 48.8953 47.826 50.0922 47.826 51.5685Z" fill="#FFECE5"/>
</svg>
