<svg width="292" height="90" viewBox="0 0 292 90" fill="none" xmlns="http://www.w3.org/2000/svg">
<path d="M0.5 7.26603C0.5 5.25957 2.12994 3.63302 4.14057 3.63302C10.3817 3.63302 16.8949 8.93512 17.9747 15.0605L20.3577 24.5724L52.9294 25.4311C56.9161 25.4311 55.8459 25.6564 62.7253 25.6564C69.6047 25.6564 71.2387 33.0871 63.2502 34.0843C60.3842 34.4421 57.2208 34.0843 53.0235 34.0843L22.0147 35.2635L22.8399 38.0476C25.1235 47.5595 26.0171 48.3522 27.6057 51.5228C32.3716 57.8641 30.7829 55.4861 32.3716 57.0714C33.6995 58.3966 34.8415 58.6316 36.2438 59.4494C38.5274 60.242 36.8547 59.8379 38.726 60.242C41.6205 60.4543 44.9747 61.0347 51.0977 61.0347H53.0235C55.8112 61.0347 58.4844 60.242 58.4844 60.242L60.8673 59.4494C61.4796 59.1769 64.0445 57.8641 66.0303 57.0714C69.2075 56.2788 69.6047 61.9633 69.6047 64.2053C69.6047 65.7906 66.225 67.766 64.8388 68.1686C63.2502 68.9613 60.073 68.8535 59.4592 68.898C57.6774 69.0274 55.5144 69.0274 52.891 69.0273H51.0977C45.1991 69.0274 40.5166 69.0274 36.7387 68.673C32.8609 68.3093 29.5993 67.5495 26.6407 65.824C24.5983 64.6329 22.7554 63.1403 21.1803 61.3967C18.8871 58.8581 17.5369 55.8543 16.4951 52.2035C15.4849 48.6635 14.6858 44.2071 13.6853 38.6265L12.0854 29.704L12.0832 29.6915L9.58618 15.5275C9.1092 12.8219 6.79244 10.8991 4.14057 10.8991C2.12994 10.8991 0.5 9.27249 0.5 7.26603Z" fill="#F56630"/>
<path d="M28.7144 79.9264C31.2277 79.9264 33.2651 77.8932 33.2651 75.3851C33.2651 72.877 31.2277 70.8438 28.7144 70.8438C26.2011 70.8438 24.1637 72.877 24.1637 75.3851C24.1637 77.8932 26.2011 79.9264 28.7144 79.9264Z" fill="#F56630"/>
<path d="M66.0303 75.3851C66.0303 77.8932 63.9929 79.9264 61.4796 79.9264C58.9663 79.9264 56.9289 77.8932 56.9289 75.3851C56.9289 72.877 58.9663 70.8438 61.4796 70.8438C63.9929 70.8438 66.0303 72.877 66.0303 75.3851Z" fill="#F56630"/>
<path d="M99.624 70.3556C95.1443 70.3556 91.1063 69.3167 87.5099 67.2389C83.9767 65.1611 81.169 62.2648 79.0869 58.55C77.0679 54.7722 76.0584 50.4278 76.0584 45.5167C76.0584 40.4796 77.0995 36.1037 79.1816 32.3889C81.2636 28.6111 84.1029 25.6834 87.6992 23.6056C91.2956 21.5278 95.3336 20.4889 99.8132 20.4889C104.356 20.4889 108.394 21.5278 111.927 23.6056C115.461 25.6834 118.237 28.5797 120.256 32.2945C122.338 36.0093 123.379 40.3852 123.379 45.4222C123.379 50.4593 122.338 54.8352 120.256 58.55C118.237 62.2648 115.429 65.1611 111.833 67.2389C108.236 69.3167 104.167 70.3556 99.624 70.3556ZM99.624 62.2333C102.211 62.2333 104.545 61.6037 106.627 60.3445C108.773 59.0852 110.476 57.2278 111.738 54.7722C113.063 52.2537 113.725 49.1371 113.725 45.4222C113.725 41.7074 113.094 38.6222 111.833 36.1667C110.571 33.6482 108.867 31.7593 106.722 30.5C104.64 29.2408 102.337 28.6111 99.8132 28.6111C97.2895 28.6111 94.955 29.2408 92.8098 30.5C90.6646 31.7593 88.9296 33.6482 87.6046 36.1667C86.3427 38.6222 85.7118 41.7074 85.7118 45.4222C85.7118 49.1371 86.3427 52.2537 87.6046 54.7722C88.9296 57.2278 90.6331 59.0852 92.7152 60.3445C94.8604 61.6037 97.1633 62.2333 99.624 62.2333Z" fill="#F56630"/>
<path d="M160.538 70.3556C157.951 70.3556 155.585 69.9778 153.44 69.2222C151.358 68.5296 149.528 67.5537 147.951 66.2945C146.373 65.0352 145.048 63.587 143.976 61.95L143.029 69.2222H134.512V1.22227C137.902 -0.76663 140.397 -0.00421772 143.976 1.22227C147.554 2.44876 143.976 29.0834 143.976 29.0834C145.49 26.6908 147.604 24.676 150.317 23.0389C153.093 21.3389 156.5 20.4889 160.538 20.4889C165.081 20.4889 169.087 21.5908 172.557 23.7945C176.027 25.9352 178.709 28.8945 180.602 32.6723C182.558 36.3871 183.536 40.6685 183.536 45.5167C183.536 50.2389 182.558 54.4889 180.602 58.2667C178.709 62.0445 176.027 65.0037 172.557 67.1445C169.087 69.2852 165.081 70.3556 160.538 70.3556ZM159.024 62.1389C161.926 62.1389 164.481 61.4463 166.69 60.0611C168.961 58.6759 170.728 56.7241 171.989 54.2056C173.314 51.6871 173.977 48.7593 173.977 45.4222C173.977 42.0852 173.314 39.1889 171.989 36.7334C170.728 34.2148 168.961 32.263 166.69 30.8778C164.481 29.4297 161.926 28.7056 159.024 28.7056C156.058 28.7056 153.44 29.4297 151.168 30.8778C148.96 32.263 147.225 34.2148 145.963 36.7334C144.701 39.1889 144.07 42.0852 144.07 45.4222C144.07 48.7593 144.701 51.6871 145.963 54.2056C147.225 56.7241 148.96 58.6759 151.168 60.0611C153.44 61.4463 156.058 62.1389 159.024 62.1389Z" fill="#F56630"/>
<path d="M210.391 70.3556C206.48 70.3556 203.23 69.6945 200.643 68.3722C198.057 67.05 196.132 65.287 194.87 63.0833C193.608 60.8167 192.977 58.3926 192.977 55.8111C192.977 52.663 193.798 49.987 195.438 47.7833C197.079 45.5167 199.413 43.7852 202.442 42.5889C205.47 41.3926 209.098 40.7945 213.325 40.7945H225.723C225.723 38.0241 225.313 35.726 224.493 33.9C223.673 32.0741 222.442 30.7204 220.802 29.8389C219.225 28.8945 217.206 28.4223 214.745 28.4223C211.906 28.4223 209.477 29.1148 207.458 30.5C205.438 31.8223 204.177 33.8056 203.672 36.45H194.208C194.586 33.113 195.722 30.2797 197.615 27.95C199.571 25.5574 202.063 23.7315 205.091 22.4723C208.12 21.15 211.338 20.4889 214.745 20.4889C219.225 20.4889 222.979 21.276 226.007 22.85C229.036 24.4241 231.307 26.6593 232.821 29.5556C234.399 32.3889 235.187 35.7889 235.187 39.7556V69.2222H226.954L226.196 61.1945C225.502 62.4537 224.682 63.65 223.736 64.7833C222.789 65.9167 221.654 66.8926 220.329 67.7111C219.067 68.5296 217.584 69.1593 215.881 69.6C214.24 70.1037 212.41 70.3556 210.391 70.3556ZM212.19 62.7056C214.209 62.7056 216.038 62.2963 217.679 61.4778C219.319 60.6593 220.707 59.5574 221.843 58.1722C223.042 56.7241 223.925 55.1185 224.493 53.3556C225.124 51.5296 225.471 49.6722 225.534 47.7833V47.5H214.272C211.559 47.5 209.35 47.8463 207.647 48.5389C206.006 49.1685 204.808 50.05 204.05 51.1833C203.293 52.3167 202.915 53.6389 202.915 55.15C202.915 56.7241 203.262 58.0778 203.956 59.2111C204.713 60.2815 205.786 61.1315 207.174 61.7611C208.562 62.3908 210.234 62.7056 212.19 62.7056Z" fill="#F56630"/>
<path d="M251.278 90L262.918 63.9333L261.215 67.748C261.215 67.748 240.612 26.5987 241.34 21.6223C242.068 16.6458 249.217 15.8532 251.562 21.6223C253.906 27.3914 266.515 56.1889 266.515 56.1889C266.515 56.1889 271.458 28.7056 281.563 21.6223C284.738 19.3962 291.5 21.6223 291.5 21.6223L261.215 90H251.278Z" fill="#F56630"/>
</svg>
