<svg width="64" height="71" viewBox="0 0 64 71" fill="none" xmlns="http://www.w3.org/2000/svg">
<path d="M0.581055 3.92255C0.581055 2.07709 2.07709 0.581055 3.92255 0.581055C9.65099 0.581055 15.6291 5.4577 16.6202 11.0916L18.8074 19.8402L48.7034 20.63C52.3625 20.63 51.3803 20.8372 57.6945 20.8372C64.0087 20.8372 65.5085 27.6717 58.1763 28.5889C55.5457 28.9179 52.6422 28.5889 48.7897 28.5889L20.3283 29.2836L21.0857 32.2341C23.1817 40.9828 24.0019 41.7118 25.46 44.628C29.8343 50.4605 28.3762 48.2733 29.8343 49.7314C31.0532 50.9503 32.1014 51.1664 33.3885 51.9186C35.4845 52.6476 33.9491 52.2759 35.6667 52.6476C38.3235 52.8429 41.4021 53.3767 47.0221 53.3767H48.7897C51.3484 53.3767 53.8019 52.6476 53.8019 52.6476L55.9891 51.9186C56.5511 51.668 58.9053 50.4605 60.728 49.7314C63.6442 49.0024 64.0087 54.2308 64.0087 56.2929C64.0087 57.751 60.9067 59.5679 59.6344 59.9382C58.1763 60.6672 55.2601 60.5681 54.6967 60.609C53.0612 60.728 51.0759 60.728 48.668 60.728H47.0221C41.6081 60.728 37.3102 60.728 33.8427 60.4021C30.2835 60.0675 27.2898 59.3688 24.5742 57.7817C22.6996 56.6861 21.0082 55.3133 19.5625 53.7096C17.4576 51.3747 16.2183 48.6119 15.2621 45.2541C14.3349 41.9981 13.6015 37.8993 12.6831 32.7666L11.2147 24.5601L11.2127 24.5486L8.92079 11.5211C8.483 9.03264 6.35656 7.26404 3.92255 7.26404C2.07709 7.26404 0.581055 5.76801 0.581055 3.92255Z" fill="#F56630"/>
<path d="M26.4776 70.7524C28.7845 70.7524 30.6545 68.8824 30.6545 66.5756C30.6545 64.2688 28.7845 62.3987 26.4776 62.3987C24.1708 62.3987 22.3008 64.2688 22.3008 66.5756C22.3008 68.8824 24.1708 70.7524 26.4776 70.7524Z" fill="#F56630"/>
<path d="M60.728 66.5756C60.728 68.8824 58.8579 70.7524 56.5511 70.7524C54.2443 70.7524 52.3742 68.8824 52.3742 66.5756C52.3742 64.2688 54.2443 62.3987 56.5511 62.3987C58.8579 62.3987 60.728 64.2688 60.728 66.5756Z" fill="#F56630"/>
</svg>
